tka_passive_flex_60_states
version=1
nRows=26
nColumns=27
inDegrees=yes

# SIMM Motion File Header:
name tka_passive_flex_60_states
datacolumns 27
datarows 26
otherdata 1
range 0.00000000 0.06816548
endheader
time	ground_r1	ground_r2	ground_r3	ground_tx	ground_ty	ground_tz	knee_flex_r	knee_add_r	knee_rot_r	knee_tx_r	knee_ty_r	knee_tz_r	knee_angle_r_beta	ground_r1_u	ground_r2_u	ground_r3_u	ground_tx_u	ground_ty_u	ground_tz_u	knee_flex_r_u	knee_add_r_u	knee_rot_r_u	knee_tx_r_u	knee_ty_r_u	knee_tz_r_u	knee_angle_r_beta_u
      0.00000000	      0.00000000	     -0.00000000	      0.00000000	     -0.00000000	      0.96900000	     -0.00000000	     -0.00000000	     -2.06543584	     -0.91612124	     -0.00345911	      0.00795634	     -0.00890185	      0.00000000	      0.00000000	      0.00000000	      0.00000000	      0.00000000	      0.00000000	      0.00000000	      0.00010124	      0.00000000	      0.00000000	      0.00000000	      0.00000000	      0.00000000	      0.00010124
      0.00239847	      0.00000000	     -0.00000000	      0.00000000	     -0.00000000	      0.96900000	     -0.00000000	      0.00000023	     -2.06647404	     -0.91407518	     -0.00345845	      0.00795743	     -0.00890605	      0.00000023	      0.00000000	     -0.00000000	      0.00000000	     -0.00000000	      0.00000000	     -0.00000000	      0.00009152	     -0.80384641	      1.55244104	      0.00047605	      0.00032381	     -0.00328709	      0.00009152
      0.00479693	      0.00000000	     -0.00000000	      0.00000000	     -0.00000000	      0.96900000	     -0.00000000	      0.00000044	     -2.06875624	     -0.90937734	     -0.00345698	      0.00795700	     -0.00891571	      0.00000044	      0.00000000	     -0.00000000	      0.00000000	     -0.00000000	     -0.00000000	     -0.00000000	      0.00008181	     -0.95654828	      2.23272493	      0.00078726	     -0.00034897	     -0.00425947	      0.00008181
      0.00768404	      0.00000000	     -0.00000000	      0.00000000	     -0.00000000	      0.96900000	     -0.00000000	      0.00000066	     -2.07055345	     -0.90272548	     -0.00345399	      0.00795666	     -0.00892526	      0.00000066	      0.00000000	     -0.00000000	      0.00000000	     -0.00000000	     -0.00000000	     -0.00000000	      0.00007012	     -0.17175674	      2.29029591	      0.00121472	     -0.00028668	     -0.00192081	      0.00007012
      0.01179871	      0.00000000	     -0.00000000	      0.00000000	     -0.00000000	      0.96900000	     -0.00000000	      0.00000091	     -2.06815205	     -0.89373138	     -0.00344807	      0.00795544	     -0.00892303	      0.00000091	      0.00000000	     -0.00000000	      0.00000000	     -0.00000000	     -0.00000000	      0.00000000	      0.00005346	      1.18033109	      2.14210893	      0.00143070	     -0.00174705	      0.00250420	      0.00005346
      0.01397305	      0.00000000	     -0.00000000	      0.00000000	     -0.00000000	      0.96900000	     -0.00000000	      0.00000102	     -2.06517983	     -0.88900658	     -0.00344437	      0.00795523	     -0.00891620	      0.00000102	      0.00000000	     -0.00000000	      0.00000000	     -0.00000000	     -0.00000000	      0.00000000	      0.00004465	      1.44606899	      2.24180576	      0.00188708	      0.00102946	      0.00341215	      0.00004465
      0.01614739	      0.00000000	     -0.00000000	      0.00000000	     -0.00000000	      0.96900000	     -0.00000000	      0.00000111	     -2.06235073	     -0.88382832	     -0.00344043	      0.00795616	     -0.00890984	      0.00000111	      0.00000000	      0.00000000	      0.00000000	     -0.00000000	     -0.00000000	      0.00000000	      0.00003585	      1.08004938	      2.53866999	      0.00169412	     -0.00044913	      0.00217819	      0.00003585
      0.01839367	      0.00000000	     -0.00000000	      0.00000000	     -0.00000000	      0.96900000	     -0.00000000	      0.00000118	     -2.06061052	     -0.87776867	     -0.00343679	      0.00795445	     -0.00890723	      0.00000118	      0.00000000	     -0.00000000	      0.00000000	     -0.00000000	     -0.00000000	      0.00000000	      0.00002675	      0.46566471	      2.84016746	      0.00160139	     -0.00052362	      0.00014858	      0.00002675
      0.02063995	      0.00000000	     -0.00000000	      0.00000000	     -0.00000000	      0.96900000	     -0.00000000	      0.00000123	     -2.06019058	     -0.87117865	     -0.00343318	      0.00795466	     -0.00890889	      0.00000123	     -0.00000000	     -0.00000000	      0.00000000	     -0.00000000	     -0.00000000	      0.00000000	      0.00001766	     -0.06921394	      3.00075304	      0.00154786	      0.00030372	     -0.00153229	      0.00001766
      0.02288623	      0.00000000	     -0.00000000	      0.00000000	     -0.00000000	      0.96900000	     -0.00000000	      0.00000126	     -2.06071313	     -0.86443594	     -0.00343007	      0.00795442	     -0.00891334	      0.00000126	      0.00000000	     -0.00000000	      0.00000000	     -0.00000000	     -0.00000000	      0.00000000	      0.00000856	     -0.32956981	      2.97055031	      0.00122645	     -0.00039539	     -0.00219264	      0.00000856
      0.02617463	      0.00000000	     -0.00000000	      0.00000000	     -0.00000000	      0.96900000	     -0.00000000	      0.00000126	     -2.06146715	     -0.85516217	     -0.00342653	      0.00795422	     -0.00891871	      0.00000126	      0.00000000	     -0.00000000	      0.00000000	     -0.00000000	     -0.00000000	      0.00000000	     -0.00000476	     -0.06214475	      2.64299019	      0.00077320	     -0.00078659	     -0.00083331	     -0.00000476
      0.02896485	      0.00000000	     -0.00000000	      0.00000000	     -0.00000000	      0.96900000	     -0.00000000	      0.00000123	     -2.06092039	     -0.84828935	     -0.00342468	      0.00795372	     -0.00891800	      0.00000123	      0.00000000	     -0.00000000	      0.00000000	     -0.00000000	     -0.00000000	      0.00000000	     -0.00001606	      0.42420394	      2.30214985	      0.00045121	     -0.00030679	      0.00123635	     -0.00001606
      0.03175507	      0.00000000	     -0.00000000	      0.00000000	     -0.00000000	      0.96900000	     -0.00000000	      0.00000117	     -2.05928392	     -0.84219827	     -0.00342390	      0.00795362	     -0.00891249	      0.00000117	     -0.00000000	     -0.00000000	      0.00000000	     -0.00000000	     -0.00000000	      0.00000000	     -0.00002735	      0.67834880	      2.09568072	      0.00006479	     -0.00007895	      0.00245185	     -0.00002735
      0.03653363	      0.00000000	     -0.00000000	      0.00000000	     -0.00000000	      0.96900000	     -0.00000000	      0.00000100	     -2.05682922	     -0.83233342	     -0.00342541	      0.00795247	     -0.00890263	      0.00000100	     -0.00000000	     -0.00000000	     -0.00000000	      0.00000000	     -0.00000000	      0.00000000	     -0.00004670	      0.17486889	      2.06600864	     -0.00086490	     -0.00174580	      0.00099697	     -0.00004670
      0.03824767	      0.00000000	     -0.00000000	      0.00000000	     -0.00000000	      0.96900000	     -0.00000000	      0.00000091	     -2.05664528	     -0.82884972	     -0.00342662	      0.00795306	     -0.00890130	      0.00000091	      0.00000000	     -0.00000000	     -0.00000000	      0.00000000	     -0.00000000	      0.00000000	     -0.00005365	      0.03501370	      1.99612733	     -0.00057564	      0.00213341	      0.00052958	     -0.00005365
      0.04044225	      0.00000000	     -0.00000000	      0.00000000	     -0.00000000	      0.96900000	     -0.00000000	      0.00000078	     -2.05692040	     -0.82455272	     -0.00342842	      0.00795574	     -0.00890142	      0.00000078	      0.00000000	     -0.00000000	     -0.00000000	      0.00000000	     -0.00000000	      0.00000000	     -0.00006253	     -0.27144713	      1.90713742	     -0.00112648	     -0.00021198	     -0.00060918	     -0.00006253
      0.04263683	      0.00000000	     -0.00000000	      0.00000000	     -0.00000000	      0.96900000	     -0.00000000	      0.00000064	     -2.05761476	     -0.82057823	     -0.00343129	      0.00795384	     -0.00890324	      0.00000064	      0.00000000	      0.00000000	     -0.00000000	      0.00000000	     -0.00000000	      0.00000000	     -0.00007142	     -0.29517466	      1.69230274	     -0.00135115	     -0.00055016	     -0.00082855	     -0.00007142
      0.04483141	      0.00000000	     -0.00000000	      0.00000000	     -0.00000000	      0.96900000	     -0.00000000	      0.00000047	     -2.05801541	     -0.81718169	     -0.00343406	      0.00795512	     -0.00890439	      0.00000047	      0.00000000	      0.00000000	     -0.00000000	      0.00000000	     -0.00000000	      0.00000000	     -0.00008031	     -0.06466842	      1.40577539	     -0.00124788	      0.00106440	     -0.00020220	     -0.00008031
      0.04702598	      0.00000000	     -0.00000000	      0.00000000	     -0.00000000	      0.96900000	     -0.00000000	      0.00000028	     -2.05791428	     -0.81437290	     -0.00343707	      0.00795587	     -0.00890422	      0.00000028	     -0.00000000	      0.00000000	     -0.00000000	      0.00000000	     -0.00000000	      0.00000000	     -0.00008919	      0.16395192	      1.16126020	     -0.00146422	     -0.00026518	      0.00037506	     -0.00008919
      0.04955107	      0.00000000	     -0.00000000	      0.00000000	     -0.00000000	      0.96900000	     -0.00000000	      0.00000005	     -2.05714426	     -0.81172142	     -0.00344067	      0.00795579	     -0.00890237	      0.00000005	     -0.00000000	      0.00000000	     -0.00000000	      0.00000000	     -0.00000000	     -0.00000000	     -0.00009942	      0.41911845	      0.96133703	     -0.00137966	      0.00017834	      0.00099415	     -0.00009942
      0.05207615	      0.00000000	     -0.00000000	      0.00000000	     -0.00000000	      0.96900000	     -0.00000000	     -0.00000022	     -2.05596515	     -0.80940763	     -0.00344400	      0.00795652	     -0.00889978	     -0.00000022	     -0.00000000	      0.00000000	     -0.00000000	      0.00000000	     -0.00000000	     -0.00000000	     -0.00010855	      0.47683787	      0.89139410	     -0.00126528	      0.00025489	      0.00092961	     -0.00010855
      0.05531263	      0.00000000	     -0.00000000	      0.00000000	     -0.00000000	      0.96900000	     -0.00000000	     -0.00000058	     -2.05465072	     -0.80648699	     -0.00344777	      0.00795715	     -0.00889805	     -0.00000058	     -0.00000000	      0.00000000	     -0.00000000	      0.00000000	     -0.00000000	     -0.00000000	     -0.00011585	      0.30880132	      0.92679822	     -0.00102603	      0.00029060	      0.00005656	     -0.00011585
      0.05864300	      0.00000000	     -0.00000000	      0.00000000	     -0.00000000	      0.96900000	     -0.00000000	     -0.00000097	     -2.05402306	     -0.80330481	     -0.00345069	      0.00795784	     -0.00889961	     -0.00000097	     -0.00000000	      0.00000000	     -0.00000000	      0.00000000	     -0.00000000	     -0.00000000	     -0.00011804	      0.09835444	      0.97259657	     -0.00067466	      0.00042868	     -0.00085947	     -0.00011804
      0.06137966	      0.00000000	     -0.00000000	      0.00000000	     -0.00000000	      0.96900000	     -0.00000000	     -0.00000129	     -2.05386398	     -0.80064794	     -0.00345225	      0.00795790	     -0.00890241	     -0.00000129	     -0.00000000	      0.00000000	     -0.00000000	      0.00000000	     -0.00000000	     -0.00000000	     -0.00011581	      0.06022966	      0.95477039	     -0.00040101	      0.00008908	     -0.00102121	     -0.00011581
      0.06411632	      0.00000000	     -0.00000000	      0.00000000	     -0.00000000	      0.96900000	     -0.00000000	     -0.00000160	     -2.05356119	     -0.79811611	     -0.00345291	      0.00795798	     -0.00890462	     -0.00000160	     -0.00000000	      0.00000000	     -0.00000000	      0.00000000	     -0.00000000	     -0.00000000	     -0.00010994	      0.17792677	      0.89396980	     -0.00007193	      0.00002099	     -0.00050912	     -0.00010994
      0.06816548	      0.00000000	     -0.00000000	      0.00000000	     -0.00000000	      0.96900000	     -0.00000000	     -0.00000202	     -2.05245057	     -0.79460546	     -0.00345221	      0.00795810	     -0.00890469	     -0.00000202	     -0.00000000	      0.00000000	     -0.00000000	      0.00000000	     -0.00000000	     -0.00000000	     -0.00009458	      0.33382640	      0.86158915	      0.00037304	     -0.00022356	      0.00037586	     -0.00009458
